<?xml version="1.0" encoding="UTF-8" standalone="no"?>
<svg
   xmlns:dc="http://purl.org/dc/elements/1.1/"
   xmlns:cc="http://creativecommons.org/ns#"
   xmlns:rdf="http://www.w3.org/1999/02/22-rdf-syntax-ns#"
   xmlns:svg="http://www.w3.org/2000/svg"
   xmlns="http://www.w3.org/2000/svg"
   xmlns:xlink="http://www.w3.org/1999/xlink"
   xmlns:sodipodi="http://sodipodi.sourceforge.net/DTD/sodipodi-0.dtd"
   xmlns:inkscape="http://www.inkscape.org/namespaces/inkscape"
   id="svg8"
   version="1.1"
   viewBox="0 0 171 267"
   height="267mm"
   width="171mm"
   sodipodi:docname="half-title.svg"
   inkscape:version="0.92.4 (5da689c313, 2019-01-14)"
   style="enable-background:new">
  <sodipodi:namedview
     pagecolor="#000000"
     bordercolor="#666666"
     borderopacity="1"
     objecttolerance="10"
     gridtolerance="10"
     guidetolerance="10"
     inkscape:pageopacity="0"
     inkscape:pageshadow="2"
     inkscape:window-width="1920"
     inkscape:window-height="1080"
     id="namedview11"
     showgrid="false"
     inkscape:zoom="1.4283557"
     inkscape:cx="262.75445"
     inkscape:cy="125.17519"
     inkscape:window-x="0"
     inkscape:window-y="0"
     inkscape:window-maximized="1"
     inkscape:current-layer="layer2"
     showguides="true"
     inkscape:guide-bbox="true"
     units="mm"
     inkscape:pagecheckerboard="true">
    <inkscape:grid
       type="xygrid"
       id="grid6042" />
  </sodipodi:namedview>
  <defs
     id="defs2">
    <path
       d="M 2.8125,9.09172 V 3.96484 c 0,0 0,-0.22468 -0.23438,-0.22468 H 1.83594 c 0,0 -1.293909,0 -1.293909,1.34765 0,0 0,0.06844 -0.185625,0.06844 0,0 -0.185469,0 -0.185469,-0.06844 v -1.5575 c 0,0 0,-0.16125 0.380782,-0.16125 0,0 0.493281,0 1.289061,0.01235 0,0 0.79594,0.01218 1.36234,0.01218 0,0 0.56641,0 1.35735,-0.01218 0,0 0.79109,-0.01235 1.34281,-0.01235 0,0 0.38094,0 0.38094,0.16125 v 1.5575 c 0,0 0,0.06844 -0.18563,0.06844 0,0 -0.18547,0 -0.18547,-0.06844 0,0 0,-1.34765 -1.27937,-1.34765 H 3.84281 c 0,0 -0.24906,0 -0.24906,0.22468 v 5.12688 c 0,0 0,0.57141 0.92281,0.57141 0,0 0.06844,0 0.06844,0.18562 0,0 0,0.18545 -0.06844,0.18545 0,0 -0.44922,-0.0342 -1.33297,-0.0342 0,0 -0.88375,0 -1.33297,0.0342 0,0 -0.06843,0 -0.06843,-0.18545 0,0 0,-0.18562 0.06843,-0.18562 0,0 0.96188,0 0.96188,-0.57141 z"
       id="GlJunicode84"
       inkscape:connector-curvature="0" />
    <path
       d="m 4.49703,9.37984 c 0,0 0,0.38094 0.62016,0.38094 0,0 0.06843,0 0.06843,0.13922 0,0 0,0.1391 -0.06843,0.1391 0,0 -0.40032,-0.0391 -0.96672,-0.0391 0,0 -0.56641,0 -0.95219,0.0391 0,0 -0.06844,0 -0.06844,-0.1391 0,0 0,-0.13922 0.06844,-0.13922 0,0 0.55172,0 0.55172,-0.38094 V 7.32906 c 0,0 0,-0.47359 -0.28812,-0.80562 0,0 -0.28797,-0.33203 -0.69813,-0.33203 0,0 -0.41016,0 -0.72266,0.24906 0,0 -0.3125,0.24891 -0.3125,0.48828 v 2.45109 c 0,0 0,0.38094 0.54188,0.38094 0,0 0.06844,0 0.06844,0.13922 0,0 0,0.1391 -0.06844,0.1391 0,0 -0.51266,-0.0391 -1.00094,-0.0391 0,0 -0.48828,0 -0.878905,0.0391 0,0 -0.068281,0 -0.068281,-0.1391 0,0 0,-0.13922 0.068281,-0.13922 0,0 0.590781,0 0.590781,-0.38094 V 4.2675 c 0,0 0,-0.67859 -0.449218,-0.67859 0,0 -0.082969,0 -0.082969,-0.13422 0,0 0,-0.13438 0.082969,-0.13438 0,0 0.16125,0 0.476092,-0.16594 0,0 0.315,-0.16609 0.4761,-0.29312 0,0 0.15624,-0.12687 0.21484,-0.12203 0,0 0.05859,0 0.05859,0.08297 0,0 -0.02922,0.5225 -0.02922,0.80578 v 2.50969 c 0,0 0,0.12203 0.07813,0.12203 0,0 0.0439,0 0.08297,-0.03906 0,0 0.44437,-0.46875 1.17672,-0.46875 0,0 0.70797,0 1.06922,0.51515 0,0 0.3614,0.51516 0.3614,1.05234 z"
       id="GlJunicode104"
       inkscape:connector-curvature="0" />
    <path
       d="m 0.415,7.89547 c 0,0 0,-0.86906 0.554219,-1.50625 0,0 0.554221,-0.63734 1.242661,-0.63734 0,0 0.68859,0 1.11328,0.47859 0,0 0.42484,0.47844 0.42484,0.78125 0,0 0,0.30266 -0.24906,0.30765 H 1.30859 c 0,0 -0.1464,0 -0.1464,0.32219 0,0 0,0.78125 0.37344,1.34032 0,0 0.37359,0.55906 1.03281,0.55906 0,0 0.49312,0 0.9814,-0.29297 0,0 0.02438,-0.01453 0.05375,-0.01453 0,0 0.0586,0 0.1025,0.05359 0,0 0.03422,0.03422 0.03422,0.10266 0,0 0,0.02437 -0.01953,0.03906 0,0 -0.77156,0.68355 -1.51859,0.68355 0,0 -0.74703,0 -1.26719,-0.67371 0,0 -0.52,-0.6739 -0.52,-1.54312 z M 1.27438,6.92375 c 0,0 0,0.06844 0.11718,0.06844 h 1.5675 c 0,0 0.07313,0 0.07313,-0.08297 0,0 0,-0.21485 -0.2661,-0.54203 0,0 -0.26609,-0.32719 -0.55421,-0.32719 0,0 -0.31735,0 -0.54938,0.2125 0,0 -0.23187,0.21234 -0.37344,0.59812 0,0 -0.01468,0.03907 -0.01468,0.07313 z"
       id="GlJunicode101"
       inkscape:connector-curvature="0" />
    <path
       d="m 5.73734,9.09172 c 0,0 0.19047,0.57141 0.9375,0.57141 0,0 0.06344,0 0.06344,0.18562 0,0 0,0.18545 -0.06344,0.18545 0,0 -0.3564,-0.0342 -1.12796,-0.0342 0,0 -0.77141,0 -1.12297,0.0342 0,0 -0.06844,0 -0.06844,-0.18545 0,0 0,-0.18562 0.06844,-0.18562 0,0 0.48328,0 0.48328,-0.33204 0,0 0,-0.11234 -0.03906,-0.23937 L 4.375,7.56344 c 0,0 -0.04391,-0.15625 -0.21484,-0.15625 H 2.17281 c 0,0 -0.13672,0 -0.19531,0.17093 L 1.42578,9.11125 c 0,0 -0.04391,0.1075 -0.04391,0.19531 0,0 0,0.35657 0.73735,0.35657 0,0 0.06828,0 0.06828,0.18562 0,0 0,0.18545 -0.06828,0.18545 0,0 -0.41516,-0.0342 -1.04016,-0.0342 0,0 -0.624997,0 -1.0351537,0.0342 0,0 -0.0682813,0 -0.0657813,-0.18545 0,0 0.0023438,-0.18562 0.0657813,-0.18562 0,0 0.4737497,0 0.6299997,-0.13672 0,0 0.15625,-0.13672 0.322188,-0.50782 L 2.83688,4.19922 c 0,0 0.02937,-0.08297 0.02937,-0.14641 0,0 0,-0.06359 -0.06359,-0.12953 0,0 -0.06344,-0.06594 -0.06344,-0.09516 0,0 0,-0.02937 0.19281,-0.13421 0,0 0.19297,-0.105 0.45172,-0.28563 0,0 0.25891,-0.18078 0.3175,-0.18078 0,0 0.11219,0 0.17078,0.21484 0,0 0.12703,0.4736 0.23938,0.81063 z M 4.05766,7.07031 c 0,0 0.12203,0 0.12203,-0.07812 0,0 0,-0.02438 -0.00969,-0.05375 L 3.33984,4.34078 c 0,0 -0.02922,-0.09765 -0.08781,-0.09765 0,0 -0.05859,0 -0.09281,0.09765 L 2.19734,6.93844 c 0,0 -0.00984,0.02437 -0.00984,0.05375 0,0 0,0.07812 0.11719,0.07812 z"
       id="GlJunicode65"
       inkscape:connector-curvature="0" />
    <path
       d="m 4.375,9.37984 c 0,0 0,0.38094 0.56156,0.38094 0,0 0.06828,0 0.06828,0.13922 0,0 0,0.1391 -0.06828,0.1391 0,0 -0.37594,-0.0391 -0.91312,-0.0391 0,0 -0.53703,0 -0.93266,0.0391 0,0 -0.06828,0 -0.06828,-0.1391 0,0 0,-0.13922 0.06828,-0.13922 0,0 0.53719,0 0.53719,-0.38094 V 7.41203 c 0,0 0,-0.41015 -0.07078,-0.69578 0,0 -0.07078,-0.28562 -0.22219,-0.40516 0,0 -0.15141,-0.11968 -0.53219,-0.11968 0,0 -0.20515,0 -0.37125,0.08297 0,0 -0.16594,0.08296 -0.32468,0.19781 0,0 -0.1586,0.11469 -0.26844,0.28312 0,0 -0.10985,0.16844 -0.10985,0.36375 v 2.26078 c 0,0 0,0.38094 0.52235,0.38094 0,0 0.06843,0 0.06843,0.13922 0,0 0,0.1391 -0.06843,0.1391 0,0 -0.37594,-0.0391 -0.91297,-0.0391 0,0 -0.537189,0 -0.91797,0.0391 0,0 -0.068438,0 -0.068438,-0.1391 0,0 0,-0.13922 0.068438,-0.13922 0,0 0.561406,0 0.561406,-0.38094 V 7.19719 c 0,0 0,-0.625 -0.410156,-0.625 0,0 -0.082969,0 -0.082969,-0.13672 0,0 0,-0.13672 0.082969,-0.13672 0,0 0.185625,0 0.427344,-0.14641 0,0 0.241716,-0.14656 0.422346,-0.30515 0,0 0.18062,-0.15875 0.2539,-0.15875 0,0 0.06829,0 0.06344,0.1514 L 1.72859,6.19625 c 0,0 -0.005,0.1025 0.06829,0.1025 0,0 0.03906,0 0.07328,-0.02922 0,0 0.5225,-0.51765 1.26468,-0.51765 0,0 0.72266,0 1.07907,0.71781 0,0 0.16109,0.32234 0.16109,1.21094 z"
       id="GlJunicode110"
       inkscape:connector-curvature="0" />
    <path
       d="M 2.34859,9.02828 V 7.97844 c 0,0 0,-0.10735 -0.06828,-0.10735 0,0 -0.03422,0 -0.29297,0.12688 0,0 -0.83015,0.41516 -0.83015,1.08406 0,0 0,0.23922 0.15375,0.38813 0,0 0.1539,0.1489 0.42734,0.1489 0,0 0.19531,0 0.40281,-0.2075 0,0 0.2075,-0.2075 0.2075,-0.38328 z m 1.46,0.37109 c 0,0 0.1075,0.01469 0.14157,0.14657 0,0 0,0.01453 -0.00485,0.02437 0,0 -0.20015,0.33688 -0.37109,0.43939 0,0 -0.17094,0.1026 -0.44922,0.1026 0,0 -0.51266,0 -0.69328,-0.66402 0,0 -0.3711,0.3711 -0.59094,0.51766 0,0 -0.21969,0.14636 -0.64453,0.14636 0,0 -0.273437,0 -0.454062,-0.15136 0,0 -0.180626,-0.15141 -0.256407,-0.34907 0,0 -0.075625,-0.19781 -0.075625,-0.40296 0,0 0,-0.205 0.097656,-0.40266 0,0 0.097657,-0.19781 0.285626,-0.35656 0,0 0.187968,-0.15875 0.324692,-0.23188 l 1.13281,-0.63 c 0,0 0.09765,-0.05359 0.09765,-0.15625 V 6.54781 c 0,0 0,-0.42968 -0.64937,-0.42968 0,0 -0.4736,0 -0.65922,0.24421 0,0 -0.02438,0.03407 -0.073125,0.45407 0,0 -0.058594,0.48343 -0.337031,0.48343 0,0 -0.268438,0 -0.268438,-0.27343 0,0 0,-0.27344 0.197657,-0.54938 0,0 0.197812,-0.27594 0.339375,-0.3589 0,0 0.625002,-0.36625 1.201252,-0.36625 0,0 0.34656,0 0.67125,0.19531 0,0 0.32484,0.19531 0.32484,0.48344 v 2.59765 c 0,0 0,0.56156 0.32703,0.56156 0,0 0.09281,0 0.35157,-0.18062 0,0 0.01468,-0.00985 0.03421,-0.00985 z"
       id="GlJunicode97"
       inkscape:connector-curvature="0" />
    <path
       d="M 0.942344,8.96 V 6.48438 c 0,0 0,-0.19532 -0.195313,-0.19532 H 0.390625 c 0,0 -0.068281,0 -0.068281,-0.11234 0,0 0,-0.11234 0.068281,-0.11234 0,0 0.219688,0 0.454063,-0.17329 0,0 0.234372,-0.17328 0.390622,-0.38078 0,0 0.15625,-0.20765 0.23438,-0.39797 0,0 0.01953,-0.04406 0.06828,-0.04406 0,0 0.04891,0 0.10016,0.02453 0,0 0.0514,0.02438 0.0514,0.06828 v 0.4786 c 0,0 0,0.20984 0.20016,0.20984 h 1.1914 c 0,0 0.06829,0 0.06829,0.21984 0,0 0,0.21969 -0.06829,0.21969 h -1.1914 c 0,0 -0.20016,0 -0.20016,0.19532 v 1.96781 c 0,0 0,0.63953 0.18297,0.91297 0,0 0.18313,0.27343 0.60797,0.27343 0,0 0.25391,0 0.52734,-0.19031 0,0 0.06844,-0.04891 0.105,0.01953 0,0 0.03657,0.06828 0.03657,0.1025 0,0 0,0.03422 -0.00969,0.04875 0,0 -0.41016,0.49324 -1.07422,0.49324 0,0 -0.61031,0 -0.86672,-0.26605 0,0 -0.256406,-0.26625 -0.256406,-0.88625 z"
       id="GlJunicode116"
       inkscape:connector-curvature="0" />
    <path
       d="m 0.410156,7.91016 c 0,0 0,-0.82032 0.610314,-1.48922 0,0 0.61047,-0.66906 1.46,-0.66906 0,0 0.84969,0 1.44047,0.66406 0,0 0.59078,0.6739 0.59078,1.53328 0,0 0,0.85937 -0.54203,1.51125 0,0 -0.54188,0.65183 -1.45016,0.65183 0,0 -0.90812,0 -1.50875,-0.69089 0,0 -0.600624,-0.69094 -0.600624,-1.51125 z M 1.20609,7.93938 c 0,0 0,0.86921 0.39797,1.35999 0,0 0.39797,0.49063 0.85688,0.49063 0,0 0.46875,0 0.85937,-0.49312 0,0 0.39547,-0.49813 0.39547,-1.3575 0,0 0,-0.85938 -0.39062,-1.37688 0,0 -0.39063,-0.51766 -0.85438,-0.5225 0,0 -0.46875,0 -0.86672,0.51516 0,0 -0.39797,0.51515 -0.39797,1.38422 z"
       id="GlJunicode111"
       inkscape:connector-curvature="0" />
    <path
       d="m 7.58297,10.0391 c 0,0 -0.37594,-0.0391 -0.92281,-0.0391 0,0 -0.54688,0 -0.92766,0.0391 0,0 -0.06844,0 -0.06844,-0.1391 0,0 0,-0.13922 0.06844,-0.13922 0,0 0.53703,0 0.53703,-0.38094 V 7.16797 c 0,0 0,-0.57125 -0.27594,-0.77391 0,0 -0.27578,-0.20265 -0.69578,-0.20265 0,0 -0.42469,0 -0.67625,0.40046 0,0 -0.2514,0.40032 -0.2514,1.07907 v 1.7089 c 0,0 0,0.38094 0.56156,0.38094 0,0 0.06828,0 0.06828,0.13922 0,0 0,0.1391 -0.06828,0.1391 0,0 -0.39063,-0.0391 -0.92781,-0.0391 0,0 -0.53704,0 -0.91797,0.0391 0,0 -0.06828,0 -0.06828,-0.1391 0,0 0,-0.13922 0.06828,-0.13922 0,0 0.53718,0 0.53718,-0.38094 v -1.9775 c 0,0 0,-0.43953 -0.07812,-0.71781 0,0 -0.07813,-0.27828 -0.23688,-0.38562 0,0 -0.15874,-0.1075 -0.52,-0.1075 0,0 -0.21968,0 -0.37843,0.08297 0,0 -0.15875,0.08296 -0.3125,0.20015 0,0 -0.15375,0.11719 -0.26125,0.28328 0,0 -0.10735,0.16594 -0.10735,0.36125 v 2.26078 c 0,0 0,0.38094 0.5175,0.38094 0,0 0.06844,0 0.06844,0.13922 0,0 0,0.1391 -0.06844,0.1391 0,0 -0.37109,-0.0391 -0.91797,-0.0391 0,0 -0.54687,0 -0.937495,0.0391 0,0 -0.068281,0 -0.068281,-0.1391 0,0 0,-0.13922 0.068281,-0.13922 0,0 0.590781,0 0.590781,-0.38094 V 7.17766 c 0,0 0,-0.60547 -0.410156,-0.60547 0,0 -0.082969,0 -0.082969,-0.13672 0,0 0,-0.13672 0.082969,-0.13672 0,0 0.122188,0 0.407813,-0.16844 0,0 0.285627,-0.16843 0.458907,-0.30515 0,0 0.17344,-0.13672 0.23687,-0.13672 0,0 0.07328,0 0.06829,0.13187 0,0 -0.01954,0.38078 -0.01954,0.40531 0,0 0,0.1025 0.0586,0.1025 0,0 0.04406,0 0.08312,-0.03906 0,0 0.50781,-0.53718 1.23047,-0.53718 0,0 0.64453,0 1.05469,0.59578 0,0 0.05359,0.07812 0.09516,0.07812 0,0 0.04156,0 0.09515,-0.06344 0,0 0.55188,-0.61046 1.33797,-0.61046 0,0 0.59563,0 0.88609,0.33203 0,0 0.29063,0.33203 0.3711,0.57875 0,0 0.08062,0.24656 0.08062,0.57859 v 2.13859 c 0,0 0,0.38094 0.56641,0.38094 0,0 0.06844,0 0.06844,0.13922 0,0 0,0.1391 -0.06844,0.1391 z"
       id="GlJunicode109"
       inkscape:connector-curvature="0" />
    <path
       d="m 0.400469,6.43063 c 0,0 -0.127031,-0.35157 -0.590938,-0.35157 0,0 -0.068281,0 -0.068281,-0.12937 0,0 0,-0.12938 0.068281,-0.12938 0,0 0.2784377,0.02922 0.898438,0.02922 0,0 0.620151,0 0.913121,-0.02922 0,0 0.06844,0 0.06844,0.12938 0,0 0,0.12937 -0.06844,0.12937 0,0 -0.46875,0 -0.46875,0.2686 0,0 0,0.07812 0.01954,0.14156 l 0.84968,2.46094 c 0,0 0.04875,0.1514 0.12203,0.1514 0,0 0.07328,0 0.13672,-0.16109 L 3.2325,6.48922 c 0,0 0.02922,-0.06344 0.02922,-0.12688 0,0 0,-0.28328 -0.62985,-0.28328 0,0 -0.06843,0 -0.06843,-0.12937 0,0 0,-0.12938 0.06843,-0.12938 0,0 0.27829,0.02922 0.79594,0.02922 0,0 0.5175,0 0.80078,-0.02922 0,0 0.06829,0 0.06829,0.12938 0,0 0,0.12937 -0.06829,0.12937 0,0 -0.46875,0 -0.61046,0.35157 L 1.46,12.0411 c 0,0 -0.12203,0.3125 -0.35891,0.4858 0,0 -0.236871,0.1733 -0.510309,0.1733 0,0 -0.195312,0 -0.317343,-0.1221 0,0 -0.122032,-0.122 -0.122032,-0.249 0,0 0,-0.3711 0.461406,-0.3711 0,0 0.461408,0 0.588438,-0.3075 L 1.67,10.4786 c 0,0 0.05359,-0.1222 0.05359,-0.1906 0,0 0,-0.0683 -0.06343,-0.2489 z"
       id="GlJunicode121"
       inkscape:connector-curvature="0" />
    <path
       d="m 0.444375,6.74313 c 0,0 0,-1.28422 0.859375,-2.39501 0,0 0.85937,-1.11078 2.30953,-1.11078 0,0 1.29891,0 2.21922,1.01563 0,0 0.92047,1.01562 0.92047,2.50969 0,0 0,1.25 -0.84969,2.30968 0,0 -0.84953,1.05956 -2.31437,1.05956 0,0 -1.4161,0 -2.28032,-1.00096 0,0 -0.864215,-1.0011 -0.864215,-2.38781 z M 1.37703,6.455 c 0,0 0,1.51375 0.73235,2.41219 0,0 0.73249,0.89843 1.54781,0.89843 0,0 1.03515,0 1.59906,-0.84468 0,0 0.56406,-0.84485 0.56406,-2.08016 0,0 0,-1.36234 -0.71047,-2.30953 0,0 -0.71046,-0.94734 -1.56,-0.94734 0,0 -1.02546,0 -1.59921,0.8839 0,0 -0.5736,0.88375 -0.5736,1.98719 z"
       id="GlJunicode79"
       inkscape:connector-curvature="0" />
    <path
       d="M 0.981406,9.37984 V 6.45016 c 0,0 0,-0.18063 -0.180625,-0.18063 h -0.36125 c 0,0 -0.073281,0 -0.073281,-0.13422 0,0 0,-0.13437 0.073281,-0.13437 0,0 0.541875,0 0.541875,-0.41985 V 5.48828 c 0,0 0,-1.22078 0.688434,-1.98484 0,0 0.6886,-0.76422 1.61141,-0.76422 0,0 0.25875,0 0.46875,0.06344 0,0 0.20516,0.06359 0.32234,0.19047 0,0 0.11719,0.12203 0.11719,0.32718 0,0 0,0.14641 -0.13437,0.27828 0,0 -0.13422,0.13188 -0.28563,0.13188 0,0 -0.27344,0 -0.49562,-0.2661 0,0 -0.22219,-0.26609 -0.48579,-0.26609 0,0 -0.51765,0 -0.78859,0.415 0,0 -0.27094,0.415 -0.27094,1.01078 v 1.04485 c 0,0 0,0.18062 0.18063,0.18062 h 0.99125 c 0,0 0.07312,0 0.07312,0.21 0,0 0,0.21 -0.07312,0.21 H 1.90922 c 0,0 -0.18063,0 -0.18063,0.18063 v 2.92968 c 0,0 0,0.38094 0.72266,0.38094 0,0 0.06828,0 0.06828,0.13922 0,0 0,0.1391 -0.06828,0.1391 0,0 -0.41516,-0.0391 -1.03031,-0.0391 0,0 -0.615315,0 -1.010784,0.0391 0,0 -0.068281,0 -0.068281,-0.1391 0,0 0,-0.13922 0.068281,-0.13922 0,0 0.57125,0 0.57125,-0.38094 z"
       id="GlJunicode102"
       inkscape:connector-curvature="0" />
    <path
       d="M 1.11328,9.09172 1.40141,4.48234 c 0,0 0.00484,-0.03906 0.00484,-0.07312 0,0 0,-0.46391 -0.410156,-0.62016 0,0 -0.195313,-0.07328 -0.5225,-0.07328 0,0 -0.063438,0 -0.063438,-0.18547 0,0 0,-0.18562 0.063438,-0.18562 0,0 0.219844,0.02437 0.729996,0.02437 0,0 0.51032,0 0.66407,0.07578 0,0 0.1539,0.07563 0.25156,0.28078 L 4.42391,8.6475 c 0,0 0.06343,0.13172 0.1025,0.13172 0,0 0.04875,0 0.11718,-0.14156 L 7.01172,3.69625 c 0,0 0.1075,-0.22453 0.27344,-0.27578 0,0 0.16609,-0.05141 0.64453,-0.05141 0,0 0.47859,0 0.71297,-0.02437 0,0 0.06828,0 0.06828,0.18562 0,0 0,0.18547 -0.06828,0.18547 0,0 -0.63,0 -0.81547,0.34188 0,0 -0.1025,0.19031 -0.1025,0.51265 0,0 0,0.01469 0,0.02922 l 0.03406,4.49219 c 0,0 0.005,0.57141 0.77641,0.57141 0,0 0.06843,0 0.06843,0.18562 0,0 0,0.18545 -0.06843,0.18545 0,0 -0.36625,-0.0342 -1.11813,-0.0342 0,0 -0.75203,0 -1.16703,0.0342 0,0 -0.06828,0 -0.06828,-0.18545 0,0 0,-0.18562 0.06828,-0.18562 0,0 0.7325,0 0.7275,-0.57141 l -0.01953,-4.165 c 0,0 0,-0.06344 -0.04391,-0.06344 0,0 -0.0439,0 -0.06828,0.0586 L 4.375,10.0294 c 0,0 -0.03906,0.0829 -0.10734,0.0829 0,0 -0.06844,0 -0.1075,-0.0829 L 1.89453,4.91703 c 0,0 -0.03906,-0.08312 -0.08297,-0.08312 0,0 -0.0439,0 -0.0489,0.08312 L 1.51375,9.09172 c 0,0 0,0.02453 0,0.04406 0,0 0,0.52735 0.77141,0.52735 0,0 0.06843,0 0.06843,0.18562 0,0 0,0.18545 -0.06843,0.18545 0,0 -0.39547,-0.0342 -0.96188,-0.0342 0,0 -0.566405,0 -0.976561,0.0342 0,0 -0.063438,0 -0.063438,-0.18545 0,0 0,-0.18562 0.063438,-0.18562 0,0 0.732341,0 0.766561,-0.57141 z"
       id="GlJunicode77"
       inkscape:connector-curvature="0" />
    <path
       d="m 1.72859,9.37984 c 0,0 0,0.38094 0.58094,0.38094 0,0 0.06844,0 0.06844,0.13922 0,0 0,0.1391 -0.06844,0.1391 0,0 -0.37594,-0.0391 -0.94234,-0.0391 0,0 -0.566409,0 -0.957034,0.0391 0,0 -0.068281,0 -0.068281,-0.1391 0,0 0,-0.13922 0.068281,-0.13922 0,0 0.57125,0 0.57125,-0.38094 V 4.28219 c 0,0 0,-0.6836 -0.449218,-0.6836 0,0 -0.082969,0 -0.082969,-0.13422 0,0 0,-0.13437 0.082969,-0.13437 0,0 0.224687,0 0.805782,-0.36125 0,0 0.16594,-0.1025 0.24406,-0.16109 0,0 0.07813,-0.0586 0.12703,-0.0586 0,0 0.04875,0 0.04875,0.07313 0,0 -0.02922,0.27843 -0.02922,0.47375 z"
       id="GlJunicode108"
       inkscape:connector-curvature="0" />
    <path
       d="m 3.62797,9.25781 c 0,0 0.05375,-0.02437 0.11953,0.07578 0,0 0.06594,0.1 0.06594,0.13907 0,0 0,0.02922 -0.02438,0.05375 0,0 -0.12687,0.11218 -0.52734,0.34656 0,0 -0.39063,0.23453 -1.08391,0.23933 0,0 -0.71297,0 -1.235466,-0.57121 0,0 -0.522344,-0.5714 -0.522344,-1.47468 0,0 0,-0.90329 0.59562,-1.60891 0,0 0.59579,-0.70562 1.53813,-0.70562 0,0 0.95703,0 1.13766,0.35656 0,0 0.02937,0.05859 0.02937,0.20015 0,0 0,0.09282 -0.1075,0.22703 0,0 -0.10734,0.13422 -0.19047,0.13422 0,0 -0.08297,0 -0.13172,-0.06828 0,0 -0.38093,-0.5225 -0.84484,-0.5225 0,0 -0.46375,0 -0.84469,0.49813 0,0 -0.38078,0.50281 -0.38578,1.27437 0,0 0,0.77141 0.43703,1.24016 0,0 0.43703,0.46875 0.93516,0.46875 0,0 0.37594,0 1.04,-0.30266 z"
       id="GlJunicode99"
       inkscape:connector-curvature="0" />
    <path
       d="m 3.85,6.75 c 0,0 -0.07,0.03 0,0.13 0,0 0.45,0.68 0.625,0.935 0,0 0.175,0.255 0.57,0.73 0,0 0.395,0.475 0.835,0.875 0,0 0.24,0.21 0.49,0.27 0,0 0.25,0.06 0.66,0.06 0,0 0.15,0 0.15,0.11 0,0 0,0.19 -0.265,0.27 0,0 -0.265,0.08 -0.545,0.08 0,0 -0.94,0 -1.38,-0.54 0,0 -0.05,-0.06 -0.27,-0.325 0,0 -0.22,-0.265 -0.295,-0.36 0,0 -0.075,-0.095 -0.25,-0.335 0,0 -0.175,-0.24 -0.34,-0.49 0,0 -0.165,-0.25 -0.365,-0.57 0,0 -0.15,-0.25 -0.43,-0.39 0,0 -0.36,-0.17 -0.79,-0.22 0,0 -0.08,-0.01 -0.115,0.045 0,0 -0.035,0.055 -0.035,0.155 V 8.9 c 0,0 0,0.74 0.67,0.86 0,0 0.33,0.06 0.33,0.18 0,0 0,0.11 -0.29,0.11 0,0 -0.29,0 -0.55,-0.035 0,0 -0.26,-0.035 -0.43,-0.035 0,0 -0.25,0 -0.64,0.035 0,0 -0.39,0.035 -0.66,0.035 0,0 -0.29,0 -0.29,-0.11 0,0 0,-0.12 0.33,-0.18 0,0 0.39,-0.07 0.56,-0.235 C 1.13,9.525 1.3,9.36 1.3,9 V 4.78 c 0,0 0,-0.48 -0.125,-0.71 0,0 -0.125,-0.23 -0.485,-0.29 0,0 -0.33,-0.06 -0.33,-0.2 0,0 0,-0.11 0.29,-0.11 0,0 0.29,0 0.54,0.005 0,0 0.25,0.005 0.44,0.005 0,0 0.17,0 0.505,-0.025 0,0 0.335,-0.025 0.645,-0.025 0,0 2.25,0 2.25,1.64 0,0 0,1.08 -1.18,1.68 z M 4.13,5.23 c 0,0 0,-0.7 -0.285,-1.1 0,0 -0.285,-0.4 -1.065,-0.4 0,0 -0.38,0 -0.505,0.14 0,0 -0.125,0.14 -0.135,0.4 0,0 -0.04,0.97 -0.04,2.09 0,0 0,0.23 0.12,0.29 0,0 0.12,0.06 0.41,0.06 0,0 0.67,0 1.085,-0.44 0,0 0.415,-0.44 0.415,-1.04 z"
       id="GlEBGaramond12-Regular82"
       inkscape:connector-curvature="0" />
    <path
       d="m 0.45,6.8 c 0,0 0,-0.93 0.385,-1.695 0,0 0.385,-0.765 1.185,-1.255 0,0 0.8,-0.49 1.88,-0.49 0,0 1.34,0 2.31,0.925 0,0 0.97,0.925 0.97,2.365 0,0 0,0.68 -0.22,1.305 0,0 -0.22,0.625 -0.635,1.115 0,0 -0.415,0.49 -1.065,0.78 0,0 -0.65,0.29 -1.44,0.29 0,0 -1.35,0 -2.36,-0.97 0,0 -1.01,-0.97 -1.01,-2.37 z m 3.3,-3.05 c 0,0 -1.06,0 -1.695,0.82 0,0 -0.635,0.82 -0.635,1.93 0,0 0,1.32 0.725,2.285 0,0 0.725,0.965 1.805,0.965 0,0 1.1,0 1.68,-0.745 0,0 0.58,-0.745 0.58,-2.055 0,0 0,-1.46 -0.64,-2.33 0,0 -0.64,-0.87 -1.82,-0.87 z"
       id="GlEBGaramond12-Regular79"
       inkscape:connector-curvature="0" />
    <path
       d="m 2.87,9.63 c 0,0 0.6,0 1.08,-0.445 0,0 0.48,-0.445 0.48,-1.075 0,0 0,-0.88 -0.74,-1.29 0,0 -0.45,-0.25 -1.04,-0.25 0,0 -0.29,0 -0.43,0.115 0,0 -0.14,0.115 -0.14,0.245 v 1.99 c 0,0 0,0.4 0.19,0.555 0,0 0.19,0.155 0.6,0.155 z M 1.78,10 c 0,0 -0.25,0 -0.625,0.025 0,0 -0.375,0.025 -0.675,0.025 0,0 -0.29,0 -0.29,-0.11 0,0 0,-0.12 0.33,-0.18 0,0 0.4,-0.07 0.59,-0.24 0,0 0.19,-0.17 0.19,-0.51 v -4.5 c 0,0 0,-0.36 -0.155,-0.53 0,0 -0.155,-0.17 -0.515,-0.2 0,0 -0.33,-0.03 -0.33,-0.2 0,0 0,-0.11 0.29,-0.11 0,0 0.29,0 0.57,0.005 0,0 0.28,0.005 0.47,0.005 0,0 0.17,0 0.48,-0.025 0,0 0.31,-0.025 0.63,-0.025 0,0 1.13,0 1.675,0.345 0,0 0.545,0.345 0.545,1.145 0,0 0,0.62 -0.34,0.96 0,0 -0.3,0.28 -0.67,0.43 0,0 -0.04,0.02 -0.04,0.05 0,0 0,0.03 0.04,0.05 0,0 0.3,0.09 0.49,0.18 0,0 0.19,0.09 0.435,0.275 0,0 0.245,0.185 0.37,0.485 0,0 0.125,0.3 0.125,0.71 0,0 0,0.39 -0.095,0.68 0,0 -0.095,0.29 -0.28,0.48 0,0 -0.185,0.19 -0.315,0.28 0,0 -0.13,0.09 -0.35,0.2 0,0 -0.68,0.34 -1.6,0.34 0,0 -0.06,0 -0.39,-0.02 0,0 -0.33,-0.02 -0.56,-0.02 z M 2.54,6.29 c 0,0 0.63,0 1.11,-0.29 0,0 0.16,-0.09 0.305,-0.33 0,0 0.145,-0.24 0.145,-0.62 0,0 0,-0.54 -0.3,-0.93 0,0 -0.3,-0.39 -1.06,-0.39 0,0 -0.39,0 -0.525,0.105 0,0 -0.135,0.105 -0.135,0.345 v 1.74 c 0,0 0,0.37 0.46,0.37 z"
       id="GlEBGaramond12-Regular66"
       inkscape:connector-curvature="0" />
    <path
       d="m 2.1,8.98 c 0,0 0,0.37 0.155,0.52 0,0 0.155,0.15 0.505,0.15 H 3.8 c 0,0 0.53,0 0.76,-0.18 0,0 0.19,-0.15 0.42,-0.63 0,0 0.06,-0.11 0.14,-0.1 0,0 0.13,0.02 0.13,0.11 0,0 0,0.4 -0.17,1.03 0,0 -0.04,0.17 -0.14,0.17 0,0 -0.68,0 -1.745,-0.03 0,0 -1.065,-0.03 -1.525,-0.03 0,0 -0.21,0 -0.54,0.03 0,0 -0.33,0.03 -0.61,0.03 0,0 -0.29,0 -0.29,-0.11 0,0 0,-0.12 0.33,-0.18 0,0 0.39,-0.07 0.565,-0.235 0,0 0.175,-0.165 0.175,-0.515 v -4.5 c 0,0 0,-0.35 -0.145,-0.505 0,0 -0.145,-0.155 -0.525,-0.225 0,0 -0.33,-0.06 -0.33,-0.2 0,0 0,-0.11 0.29,-0.11 0,0 0.38,0 0.905,0.015 0,0 0.525,0.015 0.865,0.015 0,0 0.4,0 0.93,-0.01 0,0 0.53,-0.01 0.9,-0.015 0,0 0.37,-0.005 0.39,-0.005 0,0 0.17,0 0.18,0.09 0,0 0.15,0.81 0.15,1.03 0,0 0,0.15 -0.14,0.15 0,0 -0.08,0 -0.11,-0.1 0,0 -0.15,-0.47 -0.22,-0.55 0,0 -0.24,-0.27 -0.67,-0.27 H 2.46 c 0,0 -0.1,0 -0.23,0.095 0,0 -0.13,0.095 -0.13,0.225 v 2.12 c 0,0 0,0.09 0.055,0.155 0,0 0.055,0.065 0.125,0.065 h 0.96 c 0,0 0.44,0 0.61,-0.39 0,0 0.02,-0.04 0.085,-0.105 0,0 0.065,-0.065 0.095,-0.065 0,0 0.04,0 0.085,0.045 0,0 0.045,0.045 0.045,0.115 0,0 0,0.04 -0.015,0.25 0,0 -0.015,0.21 -0.015,0.3 0,0 0,0.11 0.01,0.38 0,0 0.01,0.27 0.01,0.3 0,0 0,0.17 -0.09,0.17 0,0 -0.16,0 -0.23,-0.23 0,0 -0.15,-0.45 -0.46,-0.45 H 2.44 c 0,0 -0.19,0 -0.265,0.05 0,0 -0.075,0.05 -0.075,0.21 z"
       id="GlEBGaramond12-Regular69"
       inkscape:connector-curvature="0" />
    <path
       d="m 3.76,8.98 c 0,0 0,0.64 0.79,0.78 0,0 0.33,0.06 0.33,0.18 0,0 0,0.11 -0.29,0.11 0,0 -0.28,0 -0.615,-0.025 0,0 -0.335,-0.025 -0.555,-0.025 0,0 -0.24,0 -0.62,0.025 0,0 -0.38,0.025 -0.66,0.025 0,0 -0.29,0 -0.29,-0.11 0,0 0,-0.12 0.33,-0.18 0,0 0.39,-0.07 0.585,-0.25 0,0 0.195,-0.18 0.195,-0.53 V 4.43 c 0,0 0,-0.4 -0.18,-0.43 0,0 -0.19,-0.04 -0.74,-0.04 H 1.57 c 0,0 -0.26,0 -0.49,0.1 0,0 -0.23,0.1 -0.33,0.29 0,0 -0.06,0.12 -0.185,0.25 0,0 -0.125,0.13 -0.225,0.13 0,0 -0.07,0 -0.07,-0.13 0,0 0,-0.1 0.05,-0.2 0,0 0.22,-0.46 0.31,-1.11 0,0 0.03,-0.23 0.17,-0.23 0,0 0.08,0 0.25,0.32 0,0 0.11,0.2 0.7,0.2 h 3.81 c 0,0 0.38,0 0.58,-0.14 0,0 0.07,-0.05 0.175,-0.15 0,0 0.105,-0.1 0.18,-0.155 0,0 0.075,-0.055 0.145,-0.055 0,0 0.07,0 0.07,0.23 0,0 0,0.02 -0.005,0.05 0,0 -0.005,0.03 -0.005,0.04 0,0 -0.16,0.66 -0.16,0.99 v 0.12 c 0,0 0,0.1 -0.045,0.21 0,0 -0.045,0.11 -0.115,0.11 0,0 -0.11,0 -0.19,-0.41 0,0 -0.08,-0.46 -0.92,-0.46 H 4.32 c 0,0 -0.38,0 -0.47,0.075 0,0 -0.09,0.075 -0.09,0.385 z"
       id="GlEBGaramond12-Regular84"
       inkscape:connector-curvature="0" />
    <path
       d="m 6.45,4.53 c 0,0 -0.01,0.11 -0.1,2.97 0,0 -0.04,1.16 -0.78,1.9 0,0 -0.74,0.74 -1.85,0.74 0,0 -1.31,0 -2,-0.68 0,0 -0.69,-0.68 -0.69,-1.86 V 4.53 c 0,0 0,-0.6 -0.46,-0.73 0,0 -0.33,-0.09 -0.33,-0.22 0,0 0,-0.11 0.29,-0.11 0,0 0.14,0 0.455,0.015 0,0 0.315,0.015 0.505,0.015 0,0 0.17,0 0.44,-0.01 0,0 0.27,-0.01 0.36,-0.01 0,0 0.29,0 0.29,0.11 0,0 0,0.09 -0.33,0.2 0,0 -0.14,0.04 -0.28,0.245 0,0 -0.14,0.205 -0.14,0.475 v 2.81 c 0,0 0,1.16 0.57,1.74 0,0 0.57,0.58 1.53,0.58 0,0 1,0 1.495,-0.695 0,0 0.495,-0.695 0.495,-1.905 0,0 0,-0.61 -0.04,-2.15 0,0 -0.02,-0.98 -0.41,-1.09 0,0 -0.33,-0.09 -0.33,-0.2 0,0 0,-0.11 0.29,-0.11 0,0 0.15,0 0.38,0.005 0,0 0.23,0.005 0.37,0.005 0,0 0.17,0 0.44,-0.015 0,0 0.27,-0.015 0.37,-0.015 0,0 0.29,0 0.29,0.11 0,0 0,0.13 -0.33,0.2 0,0 -0.47,0.09 -0.5,0.75 z"
       id="GlEBGaramond12-Regular85"
       inkscape:connector-curvature="0" />
    <path
       d="m 6.16,3.5 c 0,0 0.22,0 0.525,-0.015 0,0 0.305,-0.015 0.625,-0.015 0,0 0.29,0 0.29,0.11 0,0 0,0.14 -0.33,0.2 0,0 -0.37,0.07 -0.495,0.18 0,0 -0.125,0.11 -0.135,0.36 0,0 -0.02,0.48 -0.02,5.6 0,0 0,0.25 -0.21,0.25 0,0 -0.11,0 -0.35,-0.165 0,0 -0.24,-0.165 -0.46,-0.465 0,0 -0.27,-0.37 -3.56,-4.38 0,0 -0.13,-0.16 -0.21,-0.16 0,0 -0.09,0 -0.09,0.21 0,0 -0.05,2.47 -0.05,3.75 0,0 0,0.68 0.64,0.8 0,0 0.33,0.06 0.33,0.18 0,0 0,0.11 -0.29,0.11 0,0 -0.29,0 -0.535,-0.025 0,0 -0.245,-0.025 -0.405,-0.025 0,0 -0.16,0 -0.39,0.025 0,0 -0.23,0.025 -0.52,0.025 0,0 -0.29,0 -0.29,-0.11 0,0 0,-0.1 0.33,-0.19 0,0 0.51,-0.14 0.58,-0.82 0,0 0.18,-1.69 0.18,-4 0,0 0,-0.49 -0.245,-0.73 0,0 -0.245,-0.24 -0.745,-0.4 0,0 -0.31,-0.1 -0.31,-0.24 0,0 0,-0.14 0.23,-0.14 0,0 0.31,0.01 0.725,0.03 0,0 0.415,0.02 0.815,0.02 0,0 0.11,0 0.24,0.17 0,0 0.13,0.18 1.875,2.375 0,0 1.745,2.195 1.935,2.425 0,0 0.17,0.2 0.25,0.2 0,0 0.09,0 0.1,-0.21 0,0 0.02,-0.64 0.02,-3.2 V 4.36 c 0,0 -0.01,-0.18 -0.205,-0.35 0,0 -0.195,-0.17 -0.375,-0.2 0,0 -0.33,-0.06 -0.33,-0.2 0,0 0,-0.11 0.29,-0.11 z"
       id="GlEBGaramond12-Regular78"
       inkscape:connector-curvature="0" />
    <filter
       style="color-interpolation-filters:sRGB"
       inkscape:label="Invert"
       id="filter1781">
      <feColorMatrix
         type="hueRotate"
         values="180"
         result="color1"
         id="feColorMatrix1777" />
      <feColorMatrix
         values="-1 0 0 0 1 0 -1 0 0 1 0 0 -1 0 1 0.21 0.72 0.07 1 0 "
         result="color2"
         id="feColorMatrix1779" />
    </filter>
    <filter
       style="color-interpolation-filters:sRGB"
       inkscape:label="Brilliance"
       id="filter1729-9">
      <feColorMatrix
         type="hueRotate"
         values="180"
         result="color1"
         id="feColorMatrix1725-3" />
      <feColorMatrix
         values="-1 0 0 0 1 0 -1 0 0 1 0 0 -1 0 1 -0.21 -0.72 -0.07 1.24339 0 "
         result="fbSourceGraphic"
         id="feColorMatrix1727-6" />
      <feColorMatrix
         result="fbSourceGraphicAlpha"
         in="fbSourceGraphic"
         values="0 0 0 -1 0 0 0 0 -1 0 0 0 0 -1 0 0 0 0 1 0"
         id="feColorMatrix1731-3" />
      <feColorMatrix
         id="feColorMatrix1733-8"
         type="hueRotate"
         values="180"
         result="color1"
         in="fbSourceGraphic" />
      <feColorMatrix
         id="feColorMatrix1735-9"
         values="-1 0 0 0 1 0 -1 0 0 1 0 0 -1 0 1 -0.21 -0.72 -0.07 1.24 0 "
         result="fbSourceGraphic" />
      <feColorMatrix
         result="fbSourceGraphicAlpha"
         in="fbSourceGraphic"
         values="0 0 0 -1 0 0 0 0 -1 0 0 0 0 -1 0 0 0 0 1 0"
         id="feColorMatrix6060" />
      <feColorMatrix
         id="feColorMatrix6062"
         values="11 0 0 6 -5 0 11 0 6 -5 0 0 11 6 -5 0 0 0 1 0"
         in="fbSourceGraphic"
         result="fbSourceGraphic" />
      <feColorMatrix
         result="fbSourceGraphicAlpha"
         in="fbSourceGraphic"
         values="0 0 0 -1 0 0 0 0 -1 0 0 0 0 -1 0 0 0 0 1 0"
         id="feColorMatrix6356" />
      <feColorMatrix
         id="feColorMatrix6358"
         values="0.179894 0 0 0.589947 0.410053 0 0.179894 0 0.589947 0.410053 0 0 0.179894 0.589947 0.410053 0 0 0 1 0"
         in="fbSourceGraphic"
         result="fbSourceGraphic" />
      <feColorMatrix
         result="fbSourceGraphicAlpha"
         in="fbSourceGraphic"
         values="0 0 0 -1 0 0 0 0 -1 0 0 0 0 -1 0 0 0 0 1 0"
         id="feColorMatrix6395" />
      <feColorMatrix
         id="feColorMatrix6397"
         values="10 -8.41 -8.41 0 10 -8.41 10 -8.41 0 10 -8.41 -8.41 10 0 10 0 0 0 1 0 "
         in="fbSourceGraphic" />
    </filter>
    <filter
       inkscape:collect="always"
       style="color-interpolation-filters:sRGB"
       id="filter6593">
      <feBlend
         inkscape:collect="always"
         mode="luminosity"
         in2="BackgroundImage"
         id="feBlend6595" />
    </filter>
  </defs>
  <metadata
     id="metadata5">
    <rdf:RDF>
      <cc:Work
         rdf:about="">
        <dc:format>image/svg+xml</dc:format>
        <dc:type
           rdf:resource="http://purl.org/dc/dcmitype/StillImage" />
        <dc:title></dc:title>
      </cc:Work>
    </rdf:RDF>
  </metadata>
  <g
     inkscape:groupmode="layer"
     id="layer1"
     inkscape:label="bg"
     style="display:inline;opacity:1;filter:url(#filter6593)"
     transform="translate(0,167.34879)">
    <g
       inkscape:groupmode="layer"
       id="layer5"
       inkscape:label="bg 1"
       style="display:inline"
       sodipodi:insensitive="true">
      <rect
         style="opacity:1;fill:#fff8f9;fill-opacity:1;fill-rule:nonzero;stroke:none;stroke-width:0.22683704;stroke-linecap:square;stroke-linejoin:round;stroke-miterlimit:4;stroke-dasharray:none;stroke-dashoffset:0;stroke-opacity:1;paint-order:normal"
         id="rect6021"
         width="171.52882"
         height="267.07553"
         x="-8.4728908e-09"
         y="-167.45084"
         rx="5.9861245e-18" />
    </g>
    <g
       transform="matrix(2.0589103,0,0,2.0589103,-2.164651,-400.62377)"
       id="g1048"
       style="display:inline;opacity:1;filter:url(#filter1729-9)"
       inkscape:transform-center-x="-12.053403"
       inkscape:transform-center-y="18.381443">
      <path
         style="fill:none;fill-opacity:1;stroke:none;stroke-width:0.26458332px;stroke-linecap:butt;stroke-linejoin:miter;stroke-opacity:1"
         d="m 40.048939,123.64524 c -6.615136,0.0993 -12.627115,3.52593 -17.882113,8.12405 -6.401829,5.91487 -10.121252,12.00912 -11.122835,19.06447 -0.476056,3.35343 0.539502,6.92382 0.539502,10.79521 0,5.04208 2.062787,9.58969 3.590996,14.17433 1.666039,4.99809 -4.443735,5.95097 0.377754,10.77246 0.87631,0.87631 3.71313,2.52753 4.59817,4.52996 1.679598,3.80018 1.246991,8.86492 1.577681,12.29589 0.294219,3.05245 -1.676223,2.44002 -1.567863,4.72426 0.148921,3.13932 0.15725,1.45193 0.93431,4.00182 0.43234,1.41871 4.69138,1.22779 5.26066,2.40347 1.259081,2.60027 1.295741,2.00077 4.505151,3.60547 2.675471,1.33774 4.008934,3.91636 7.810894,4.74131 2.25253,0.48875 3.431727,-0.36366 5.040518,0.1726 2.316891,0.77229 6.256192,-0.29557 10.706323,-3.12694 2.896401,-1.84282 2.745213,-1.4958 4.974375,-3.22564 2.338261,-1.81451 3.028662,-1.01785 3.78478,-2.53008 2.292861,-4.58573 1.622716,-9.35594 2.457215,-14.36295 0.277029,-1.66217 0.52787,-5.46794 2.328539,-8.63307 1.161222,-2.04113 3.849809,-3.04324 4.653981,-5.61516 0.54188,-1.73306 -1.019315,-5.86333 -0.567925,-7.37577 1.41674,-4.74696 1.318585,-6.50568 2.278414,-8.42533 0.981361,-1.96272 1.798267,-14.25432 1.322917,-16.63103 -0.792451,-3.96224 -0.255577,-10.20741 -4.443656,-15.62798 -3.04914,-3.94646 -10.6456,-7.36674 -13.076722,-9.58598 -6.105289,-5.57321 -7.771571,-3.14609 -15.286921,-4.10776 -0.724,-0.0926 -1.441786,-0.14402 -2.152324,-0.15658 -0.214641,-0.004 -0.428429,-0.004 -0.641821,-0.001 z m -6.887951,39.50973 c 0.42966,-0.0147 0.879922,0.003 1.369941,0.045 0.408033,0.0351 2.315202,2.19839 2.633433,2.46548 l 1.736328,1.45728 c 0.384288,2.51406 1.378153,6.32447 -1.150835,8.84338 -2.008351,1.41118 -13.072054,5.76104 -14.866794,2.00453 -1.254477,-2.62572 -1.102773,-5.65312 -1.102775,-8.61962 2e-6,-2.70077 5.533686,-4.62789 7.550443,-4.97799 1.437301,-0.83896 2.541281,-1.17393 3.830259,-1.21802 z m 22.118029,0.89194 c 2.723367,0.38221 7.065012,2.72188 9.211323,4.16357 1.518991,1.02031 1.940396,4.43053 1.419035,6.84506 -0.301041,1.39417 -0.9051,3.76183 -2.315105,4.81934 -1.575988,1.18199 -3.115921,0.72324 -4.913394,1.3224 -1.087215,0.36241 -1.816005,-3.16318 -2.598806,-3.68505 -0.545066,-0.36338 -1.695948,-0.35876 -2.220537,-0.70848 -3.832384,-2.55493 -5.778384,-6.61703 -3.07113,-10.6779 0.865235,-1.29785 3.450357,-1.18901 4.488614,-2.07894 z m -10.29136,9.96838 c 0.263845,-0.002 0.487222,0.0355 0.55862,0.14263 0.699413,1.04912 0.182102,2.34154 0.566891,3.49591 0.239789,0.71936 0.878718,0.49077 1.086755,1.32291 0.171561,0.68625 0.112553,1.501 0.425299,2.12649 0.168111,0.33622 -0.351814,1.13655 -0.180353,1.59732 0.142541,0.38304 0.981821,0.42934 1.07797,0.71778 0.390425,1.17128 0.679921,4.55498 0,5.57486 -0.405585,0.60838 -2.349021,1.79121 -3.07113,2.03191 -0.199255,0.0664 -0.199535,-1.27069 -0.661458,-1.03973 -0.751731,0.37587 0.171712,1.933 -1.512051,1.51206 -4.753862,-1.18846 -4.691756,-7.18619 -3.07113,-11.67009 0.194953,-0.58485 -0.149373,-1.34661 0.04754,-1.93735 0.165658,-0.49697 1.511594,-0.89718 1.889808,-1.46451 0.618712,-0.92806 -0.423556,-1.90348 0.850596,-2.36213 0.324088,0.24306 0.320042,0.55672 0.519347,0.75603 0.123722,0.1237 0.245658,-0.57194 0.33073,-0.61444 0.150153,-0.0751 0.70282,-0.18651 1.142566,-0.18965 z M 27.104509,190.3993 c 0.994,0.0188 1.992045,0.18902 2.566768,1.0511 0.984517,1.47678 1.295474,2.96678 1.071769,4.02249 -0.233685,1.10281 -1.020958,1.75285 -0.78858,2.44998 0.110963,0.3329 1.829964,1.42176 2.126485,1.32292 0.246428,-0.0821 0.165137,-1.05504 0.755507,-0.66146 0.329795,0.21986 0.117105,1.02697 0.519867,1.22835 0.157059,0.0785 0.127592,-0.74151 0.189135,-0.80305 0.294666,-0.29466 0.601495,0.4253 0.661458,0.4253 0.37475,0 0.440558,-0.98728 0.850596,-0.8506 0.551944,0.18398 0.07752,1.12577 0.377753,1.27589 0.332999,0.1665 1.116957,-1.07165 1.559079,-0.85059 0.677767,0.33889 0.395282,1.19885 0.80305,1.60662 0.221181,0.22118 1.212609,-1.28131 1.653646,-1.1343 0.399684,0.13323 0.679055,1.41749 0.898138,1.41749 0.09271,0 1.021948,-1.19125 1.416966,-1.32292 0.455046,-0.15169 1.584473,0.0973 1.795756,0.51986 0.164425,0.32885 0.566891,1.73761 0.566891,1.36995 0,-1.28447 0.864616,-1.90464 1.681035,-1.58027 0.537528,0.21356 0.702837,1.0082 0.870231,0.96635 0.345426,-0.0864 1.141859,-1.20513 1.99781,-1.62884 0.886767,-0.43897 0.605465,1.37504 2.207101,-0.30851 0.949018,-0.31634 1.465483,0.37873 1.984375,0.89762 0.269579,0.26958 0.327756,-0.89762 0.709002,-0.89762 0.09022,-0.0902 1.096552,-0.46849 1.533755,-0.67644 0.379822,-0.18066 1.289063,0.22738 1.300697,0.20412 0.348348,-0.6967 -0.410581,-1.89258 -0.543121,-3.04839 -0.09549,-0.83273 0.418193,-1.42788 0.983919,-2.12752 0.52754,-0.65242 1.051224,-1.43868 2.488737,-1.43868 0.31709,0 0.650185,-0.171 0.992188,0 1.214741,0.60737 -0.197014,5.52739 -1.513602,8.72919 -0.591389,1.43819 -1.314619,2.26543 -1.510504,2.6572 -0.262464,0.52493 -1.139724,0.53227 -1.416965,1.08676 -0.235516,0.47101 -0.561245,1.65005 -0.992188,1.93735 -0.832657,0.55509 -2.076944,0.60065 -2.976562,1.27537 -0.765286,0.57396 -0.649264,1.62299 -1.748216,1.84278 -0.510421,0.10208 -1.164675,-0.1419 -1.677932,-0.0703 -0.432139,0.0603 -0.627607,0.49013 -1.058852,0.53227 -0.565949,0.0553 -1.324467,-0.27595 -1.324467,-0.27595 -0.368337,0.17728 -1.387941,0.80592 -1.753896,0.72915 -0.403826,-0.0847 -0.15552,-0.88437 -0.602549,-0.85266 -0.374391,0.0266 -0.377402,0.74398 -0.762744,0.73587 -0.529979,-0.0112 -0.984522,-0.68823 -1.543573,-0.79323 -0.377095,-0.0708 -0.382405,0.32304 -0.768946,0.23616 -0.712779,-0.16019 -1.420863,0.13251 -2.179711,-0.14004 -0.432001,-0.15515 -0.900436,-0.67579 -1.318784,-0.80822 -0.333166,-0.10546 -0.617154,0.19092 -0.950847,-0.0109 -0.457239,-0.27653 -0.674007,-1.24358 -1.104325,-1.59732 -0.253746,-0.20859 -0.552466,-0.27264 -0.834057,-0.3514 l -0.939477,-0.26252 c -0.159872,-0.10658 1.37e-4,-1.2e-4 -0.532268,-0.30644 -0.692734,-0.39857 -1.557388,-0.72533 -1.971974,-1.3472 -0.293259,-0.4399 -0.610915,-0.59799 -0.628901,-1.03508 -0.0294,-0.71453 0.347924,-1.7009 0.01499,-2.36678 -0.73266,-1.46532 -2.001491,-2.85908 -2.659269,-4.27158 -0.973227,-2.0899 -1.226669,-4.22157 -1.451073,-6.69003 0.314635,-0.007 0.645351,-0.0177 0.976683,-0.0114 z"
         id="path1046"
         inkscape:connector-curvature="0" />
    </g>
  </g>
  <g
     inkscape:groupmode="layer"
     id="layer3"
     inkscape:label="author"
     style="display:none"
     transform="translate(0,167.34879)">
    <g
       id="g8241"
       transform="matrix(0.81338029,0,0,0.81338029,0.36762229,-1.0646086)">
      <use
         id="use1481"
         transform="matrix(1.8099092,0,0,1.8099092,51.399124,-29.233108)"
         xlink:href="#GlEBGaramond12-Regular82"
         style="display:inline;fill:#000000;fill-opacity:1;stroke:#000000;stroke-width:0"
         x="0"
         y="0"
         width="100%"
         height="100%" />
      <use
         id="use1483"
         transform="matrix(1.3574319,0,0,1.3574319,62.578458,-24.708336)"
         xlink:href="#GlEBGaramond12-Regular79"
         style="display:inline;fill:#000000;fill-opacity:1;stroke:#000000;stroke-width:0"
         x="0"
         y="0"
         width="100%"
         height="100%" />
      <use
         id="use1485"
         transform="matrix(1.3574319,0,0,1.3574319,71.355798,-24.708336)"
         xlink:href="#GlEBGaramond12-Regular66"
         style="display:inline;fill:#000000;fill-opacity:1;stroke:#000000;stroke-width:0"
         x="0"
         y="0"
         width="100%"
         height="100%" />
      <use
         id="use1487"
         transform="matrix(1.3574319,0,0,1.3574319,78.296801,-24.708336)"
         xlink:href="#GlEBGaramond12-Regular69"
         style="display:inline;fill:#000000;fill-opacity:1;stroke:#000000;stroke-width:0"
         x="0"
         y="0"
         width="100%"
         height="100%" />
      <use
         id="use1489"
         transform="matrix(1.3574319,0,0,1.3574319,85.406401,-24.708336)"
         xlink:href="#GlEBGaramond12-Regular82"
         style="display:inline;fill:#000000;fill-opacity:1;stroke:#000000;stroke-width:0"
         x="0"
         y="0"
         width="100%"
         height="100%" />
      <use
         id="use1491"
         transform="matrix(1.3574319,0,0,1.3574319,93.244371,-24.708336)"
         xlink:href="#GlEBGaramond12-Regular84"
         style="display:inline;fill:#000000;fill-opacity:1;stroke:#000000;stroke-width:0"
         x="0"
         y="0"
         width="100%"
         height="100%" />
      <use
         id="use1493"
         transform="matrix(1.8099092,0,0,1.8099092,107.13962,-29.233108)"
         xlink:href="#GlEBGaramond12-Regular66"
         style="display:inline;fill:#000000;fill-opacity:1;stroke:#000000;stroke-width:0"
         x="0"
         y="0"
         width="100%"
         height="100%" />
      <use
         id="use1495"
         transform="matrix(1.3574319,0,0,1.3574319,116.45069,-24.708336)"
         xlink:href="#GlEBGaramond12-Regular85"
         style="display:inline;fill:#000000;fill-opacity:1;stroke:#000000;stroke-width:0"
         x="0"
         y="0"
         width="100%"
         height="100%" />
      <use
         id="use1497"
         transform="matrix(1.3574319,0,0,1.3574319,126.36873,-24.708336)"
         xlink:href="#GlEBGaramond12-Regular82"
         style="display:inline;fill:#000000;fill-opacity:1;stroke:#000000;stroke-width:0"
         x="0"
         y="0"
         width="100%"
         height="100%" />
      <use
         id="use1499"
         transform="matrix(1.3574319,0,0,1.3574319,134.25611,-24.708336)"
         xlink:href="#GlEBGaramond12-Regular84"
         style="display:inline;fill:#000000;fill-opacity:1;stroke:#000000;stroke-width:0"
         x="0"
         y="0"
         width="100%"
         height="100%" />
      <use
         id="use1501"
         transform="matrix(1.3574319,0,0,1.3574319,142.41593,-24.708336)"
         xlink:href="#GlEBGaramond12-Regular79"
         style="display:inline;fill:#000000;fill-opacity:1;stroke:#000000;stroke-width:0"
         x="0"
         y="0"
         width="100%"
         height="100%" />
      <use
         id="use1503"
         transform="matrix(1.3574319,0,0,1.3574319,151.77197,-24.708336)"
         xlink:href="#GlEBGaramond12-Regular78"
         style="display:inline;fill:#000000;fill-opacity:1;stroke:#000000;stroke-width:0"
         x="0"
         y="0"
         width="100%"
         height="100%" />
    </g>
  </g>
  <g
     inkscape:groupmode="layer"
     id="layer2"
     inkscape:label="Title"
     style="display:inline;opacity:1"
     transform="translate(0,167.34879)">
    <g
       id="g8296"
       transform="matrix(0.81338029,0,0,0.81338029,-1.9082047,-3.2183551)">
      <g
         id="g8260"
         transform="translate(0,-3.252886)">
        <use
           height="100%"
           width="100%"
           y="0"
           x="0"
           style="fill:#000000;fill-opacity:1;stroke:none"
           xlink:href="#GlJunicode84"
           transform="matrix(2.8958547,0,0,2.8958547,82.908448,-117.93661)"
           id="use1421" />
        <use
           height="100%"
           width="100%"
           y="0"
           x="0"
           style="fill:#000000;fill-opacity:1;stroke:none"
           xlink:href="#GlJunicode104"
           transform="matrix(2.8958547,0,0,2.8958547,100.32206,-117.93661)"
           id="use1423" />
        <use
           height="100%"
           width="100%"
           y="0"
           x="0"
           style="fill:#000000;fill-opacity:1;stroke:none"
           xlink:href="#GlJunicode101"
           transform="matrix(2.8958547,0,0,2.8958547,113.14699,-117.93661)"
           id="use1425" />
      </g>
      <g
         id="g8269">
        <use
           height="100%"
           width="100%"
           y="0"
           x="0"
           style="fill:#000000;fill-opacity:1;stroke:none"
           xlink:href="#GlJunicode65"
           transform="matrix(2.8958547,0,0,2.8958547,57.545974,-92.335352)"
           id="use1431" />
        <use
           height="100%"
           width="100%"
           y="0"
           x="0"
           style="fill:#000000;fill-opacity:1;stroke:none"
           xlink:href="#GlJunicode110"
           transform="matrix(2.8958547,0,0,2.8958547,76.5084,-92.335352)"
           id="use1433" />
        <use
           height="100%"
           width="100%"
           y="0"
           x="0"
           style="fill:#000000;fill-opacity:1;stroke:none"
           xlink:href="#GlJunicode97"
           transform="matrix(2.8958547,0,0,2.8958547,90.180284,-92.335352)"
           id="use1435" />
        <use
           height="100%"
           width="100%"
           y="0"
           x="0"
           style="fill:#000000;fill-opacity:1;stroke:none"
           xlink:href="#GlJunicode116"
           transform="matrix(2.8958547,0,0,2.8958547,99.541492,-92.335352)"
           id="use1437" />
        <use
           height="100%"
           width="100%"
           y="0"
           x="0"
           style="fill:#000000;fill-opacity:1;stroke:none"
           xlink:href="#GlJunicode111"
           transform="matrix(2.8958547,0,0,2.8958547,106.34285,-92.335352)"
           id="use1439" />
        <use
           height="100%"
           width="100%"
           y="0"
           x="0"
           style="fill:#000000;fill-opacity:1;stroke:none"
           xlink:href="#GlJunicode109"
           transform="matrix(2.8958547,0,0,2.8958547,117.69884,-92.335352)"
           id="use1441" />
        <use
           height="100%"
           width="100%"
           y="0"
           x="0"
           style="fill:#000000;fill-opacity:1;stroke:none"
           xlink:href="#GlJunicode121"
           transform="matrix(2.8958547,0,0,2.8958547,138.50945,-92.335352)"
           id="use1443" />
      </g>
      <g
         id="g8255">
        <use
           height="100%"
           width="100%"
           y="0"
           x="0"
           style="fill:#000000;fill-opacity:1;stroke:none"
           xlink:href="#GlJunicode79"
           transform="matrix(2.8958547,0,0,2.8958547,32.711738,-63.211994)"
           id="use1449" />
        <use
           height="100%"
           width="100%"
           y="0"
           x="0"
           style="fill:#000000;fill-opacity:1;stroke:none"
           xlink:href="#GlJunicode102"
           transform="matrix(2.8958547,0,0,2.8958547,51.529811,-63.211994)"
           id="use1451" />
        <use
           height="100%"
           width="100%"
           y="0"
           x="0"
           style="fill:#000000;fill-opacity:1;stroke:none"
           xlink:href="#GlJunicode77"
           transform="matrix(2.8958547,0,0,2.8958547,65.954282,-63.211994)"
           id="use1453" />
        <use
           height="100%"
           width="100%"
           y="0"
           x="0"
           style="fill:#000000;fill-opacity:1;stroke:none"
           xlink:href="#GlJunicode101"
           transform="matrix(2.8958547,0,0,2.8958547,88.749051,-63.211994)"
           id="use1455" />
        <use
           height="100%"
           width="100%"
           y="0"
           x="0"
           style="fill:#000000;fill-opacity:1;stroke:none"
           xlink:href="#GlJunicode108"
           transform="matrix(2.8958547,0,0,2.8958547,98.563298,-63.211994)"
           id="use1457" />
        <use
           height="100%"
           width="100%"
           y="0"
           x="0"
           style="fill:#000000;fill-opacity:1;stroke:none"
           xlink:href="#GlJunicode97"
           transform="matrix(2.8958547,0,0,2.8958547,104.63573,-63.211994)"
           id="use1459" />
        <use
           height="100%"
           width="100%"
           y="0"
           x="0"
           style="fill:#000000;fill-opacity:1;stroke:none"
           xlink:href="#GlJunicode110"
           transform="matrix(2.8958547,0,0,2.8958547,115.37719,-63.211994)"
           id="use1461"
           clip-path="none"
           mask="none" />
        <use
           height="100%"
           width="100%"
           y="0"
           x="0"
           style="fill:#000000;fill-opacity:1;stroke:none"
           xlink:href="#GlJunicode99"
           transform="matrix(2.8958547,0,0,2.8958547,127.85297,-63.211994)"
           id="use1463" />
        <use
           height="100%"
           width="100%"
           y="0"
           x="0"
           style="display:inline;fill:#000000;fill-opacity:1;stroke:none"
           xlink:href="#GlJunicode104"
           transform="matrix(2.8958547,0,0,2.8958547,138.18331,-63.211994)"
           id="use1465" />
        <use
           height="100%"
           width="100%"
           y="0"
           x="0"
           style="display:inline;fill:#000000;fill-opacity:1;stroke:none"
           xlink:href="#GlJunicode111"
           transform="matrix(2.8958547,0,0,2.8958547,150.83375,-63.211994)"
           id="use1467" />
        <use
           height="100%"
           width="100%"
           y="0"
           x="0"
           style="fill:#000000;fill-opacity:1;stroke:none"
           xlink:href="#GlJunicode108"
           transform="matrix(2.8958547,0,0,2.8958547,162.01111,-63.211994)"
           id="use1469" />
        <use
           height="100%"
           width="100%"
           y="0"
           x="0"
           style="fill:#000000;fill-opacity:1;stroke:none"
           xlink:href="#GlJunicode121"
           transform="matrix(2.8958547,0,0,2.8958547,168.48408,-63.211994)"
           id="use1473" />
      </g>
    </g>
  </g>
</svg>
